<mxfile host="app.diagrams.net" agent="Mozilla/5.0 (Macintosh; Intel Mac OS X 10_15_7) AppleWebKit/537.36 (KHTML, like Gecko) Chrome/140.0.0.0 Safari/537.36" version="28.2.5">
  <diagram name="Athena数据湖架构" id="riOxcXWt8IJv7SLLynOK">
    <mxGraphModel dx="1426" dy="790" grid="1" gridSize="10" guides="1" tooltips="1" connect="1" arrows="1" fold="1" page="1" pageScale="1" pageWidth="827" pageHeight="1169" math="0" shadow="0">
      <root>
        <mxCell id="0" />
        <mxCell id="1" parent="0" />
        <mxCell id="rm0nPTYw9YkT588bfk8z-1" value="Aurora 到 Athena 数据湖迁移架构" style="text;html=1;strokeColor=none;fillColor=none;align=center;verticalAlign=middle;whiteSpace=wrap;rounded=0;fontSize=18;fontStyle=1;" vertex="1" parent="1">
          <mxGeometry x="400" y="20" width="360" height="30" as="geometry" />
        </mxCell>
        <mxCell id="rm0nPTYw9YkT588bfk8z-2" value="S3 存储桶&#xa;iot-archive-bucket" style="sketch=0;points=[[0,0,0],[0.25,0,0],[0.5,0,0],[0.75,0,0],[1,0,0],[0,1,0],[0.25,1,0],[0.5,1,0],[0.75,1,0],[1,1,0],[0,0.25,0],[0,0.5,0],[0,0.75,0],[1,0.25,0],[1,0.5,0],[1,0.75,0]];outlineConnect=0;fontColor=#232F3E;gradientColor=#60A337;gradientDirection=north;fillColor=#277116;strokeColor=#ffffff;dashed=0;verticalLabelPosition=bottom;verticalAlign=top;align=center;html=1;fontSize=12;fontStyle=0;aspect=fixed;shape=mxgraph.aws4.resourceIcon;resIcon=mxgraph.aws4.s3;" vertex="1" parent="1">
          <mxGeometry x="200" y="120" width="78" height="78" as="geometry" />
        </mxCell>
        <mxCell id="rm0nPTYw9YkT588bfk8z-3" value="分区目录结构:&#xa;/dt=2025-09-27/&#xa;/dt=2025-09-26/&#xa;..." style="rounded=1;whiteSpace=wrap;html=1;fillColor=#fff2cc;strokeColor=#d6b656;" vertex="1" parent="1">
          <mxGeometry x="330" y="180" width="120" height="60" as="geometry" />
        </mxCell>
        <mxCell id="rm0nPTYw9YkT588bfk8z-4" value="Aurora MySQL&#xa;(热数据)" style="sketch=0;points=[[0,0,0],[0.25,0,0],[0.5,0,0],[0.75,0,0],[1,0,0],[0,1,0],[0.25,1,0],[0.5,1,0],[0.75,1,0],[1,1,0],[0,0.25,0],[0,0.5,0],[0,0.75,0],[1,0.25,0],[1,0.5,0],[1,0.75,0]];outlineConnect=0;fontColor=#232F3E;gradientColor=#4D72F3;gradientDirection=north;fillColor=#3334B9;strokeColor=#ffffff;dashed=0;verticalLabelPosition=bottom;verticalAlign=top;align=center;html=1;fontSize=12;fontStyle=0;aspect=fixed;shape=mxgraph.aws4.resourceIcon;resIcon=mxgraph.aws4.aurora;" vertex="1" parent="1">
          <mxGeometry x="80" y="280" width="78" height="78" as="geometry" />
        </mxCell>
        <mxCell id="rm0nPTYw9YkT588bfk8z-5" value="导出冷数据&#xa;(CSV/Parquet)" style="edgeStyle=orthogonalEdgeStyle;rounded=0;orthogonalLoop=1;jettySize=auto;html=1;exitX=0.5;exitY=0;exitDx=0;exitDy=0;exitPerimeter=0;entryX=0;entryY=0.5;entryDx=0;entryDy=0;entryPerimeter=0;" edge="1" parent="1" source="rm0nPTYw9YkT588bfk8z-4" target="rm0nPTYw9YkT588bfk8z-2">
          <mxGeometry relative="1" as="geometry" />
        </mxCell>
        <mxCell id="rm0nPTYw9YkT588bfk8z-26" value="" style="edgeStyle=orthogonalEdgeStyle;rounded=0;orthogonalLoop=1;jettySize=auto;html=1;" edge="1" parent="1" source="rm0nPTYw9YkT588bfk8z-6" target="rm0nPTYw9YkT588bfk8z-7">
          <mxGeometry relative="1" as="geometry" />
        </mxCell>
        <mxCell id="rm0nPTYw9YkT588bfk8z-6" value="AWS Glue&#xa;Data Catalog" style="sketch=0;points=[[0,0,0],[0.25,0,0],[0.5,0,0],[0.75,0,0],[1,0,0],[0,1,0],[0.25,1,0],[0.5,1,0],[0.75,1,0],[1,1,0],[0,0.25,0],[0,0.5,0],[0,0.75,0],[1,0.25,0],[1,0.5,0],[1,0.75,0]];outlineConnect=0;fontColor=#232F3E;gradientColor=#945DF2;gradientDirection=north;fillColor=#5A30B5;strokeColor=#ffffff;dashed=0;verticalLabelPosition=bottom;verticalAlign=top;align=center;html=1;fontSize=12;fontStyle=0;aspect=fixed;shape=mxgraph.aws4.resourceIcon;resIcon=mxgraph.aws4.glue;" vertex="1" parent="1">
          <mxGeometry x="500" y="120" width="78" height="78" as="geometry" />
        </mxCell>
        <mxCell id="rm0nPTYw9YkT588bfk8z-7" value="表注册&#xa;分区投影" style="rounded=1;whiteSpace=wrap;html=1;fillColor=#e1d5e7;strokeColor=#9673a6;" vertex="1" parent="1">
          <mxGeometry x="650" y="129" width="80" height="60" as="geometry" />
        </mxCell>
        <mxCell id="rm0nPTYw9YkT588bfk8z-8" value="注册表结构" style="edgeStyle=orthogonalEdgeStyle;rounded=0;orthogonalLoop=1;jettySize=auto;html=1;exitX=1;exitY=0.5;exitDx=0;exitDy=0;exitPerimeter=0;entryX=0;entryY=0.5;entryDx=0;entryDy=0;entryPerimeter=0;" edge="1" parent="1" source="rm0nPTYw9YkT588bfk8z-2" target="rm0nPTYw9YkT588bfk8z-6">
          <mxGeometry relative="1" as="geometry" />
        </mxCell>
        <mxCell id="rm0nPTYw9YkT588bfk8z-9" value="Amazon Athena&#xa;(查询引擎)" style="sketch=0;points=[[0,0,0],[0.25,0,0],[0.5,0,0],[0.75,0,0],[1,0,0],[0,1,0],[0.25,1,0],[0.5,1,0],[0.75,1,0],[1,1,0],[0,0.25,0],[0,0.5,0],[0,0.75,0],[1,0.25,0],[1,0.5,0],[1,0.75,0]];outlineConnect=0;fontColor=#232F3E;gradientColor=#945DF2;gradientDirection=north;fillColor=#5A30B5;strokeColor=#ffffff;dashed=0;verticalLabelPosition=bottom;verticalAlign=top;align=center;html=1;fontSize=12;fontStyle=0;aspect=fixed;shape=mxgraph.aws4.resourceIcon;resIcon=mxgraph.aws4.athena;" vertex="1" parent="1">
          <mxGeometry x="500" y="280" width="78" height="78" as="geometry" />
        </mxCell>
        <mxCell id="rm0nPTYw9YkT588bfk8z-11" value="查询数据" style="edgeStyle=orthogonalEdgeStyle;rounded=0;orthogonalLoop=1;jettySize=auto;html=1;exitX=0.5;exitY=1;exitDx=0;exitDy=0;exitPerimeter=0;entryX=0;entryY=0.5;entryDx=0;entryDy=0;entryPerimeter=0;" edge="1" parent="1" source="rm0nPTYw9YkT588bfk8z-2" target="rm0nPTYw9YkT588bfk8z-9">
          <mxGeometry relative="1" as="geometry" />
        </mxCell>
        <mxCell id="rm0nPTYw9YkT588bfk8z-12" value="上层应用" style="rounded=1;whiteSpace=wrap;html=1;fillColor=#dae8fc;strokeColor=#6c8ebf;fontSize=14;fontStyle=1;" vertex="1" parent="1">
          <mxGeometry x="840" y="310" width="120" height="60" as="geometry" />
        </mxCell>
        <mxCell id="rm0nPTYw9YkT588bfk8z-13" value="JDBC/ODBC&#xa;驱动连接" style="rounded=1;whiteSpace=wrap;html=1;fillColor=#f8cecc;strokeColor=#b85450;" vertex="1" parent="1">
          <mxGeometry x="650" y="250" width="100" height="50" as="geometry" />
        </mxCell>
        <mxCell id="rm0nPTYw9YkT588bfk8z-14" value="API Gateway&#xa;+ Lambda&#xa;封装" style="rounded=1;whiteSpace=wrap;html=1;fillColor=#f8cecc;strokeColor=#b85450;" vertex="1" parent="1">
          <mxGeometry x="650" y="350" width="100" height="60" as="geometry" />
        </mxCell>
        <mxCell id="rm0nPTYw9YkT588bfk8z-15" value="" style="edgeStyle=orthogonalEdgeStyle;rounded=0;orthogonalLoop=1;jettySize=auto;html=1;exitX=1;exitY=0.25;exitDx=0;exitDy=0;exitPerimeter=0;entryX=0;entryY=0.5;entryDx=0;entryDy=0;" edge="1" parent="1" source="rm0nPTYw9YkT588bfk8z-9" target="rm0nPTYw9YkT588bfk8z-13">
          <mxGeometry relative="1" as="geometry" />
        </mxCell>
        <mxCell id="rm0nPTYw9YkT588bfk8z-16" value="" style="edgeStyle=orthogonalEdgeStyle;rounded=0;orthogonalLoop=1;jettySize=auto;html=1;exitX=1;exitY=0.75;exitDx=0;exitDy=0;exitPerimeter=0;entryX=0;entryY=0.5;entryDx=0;entryDy=0;" edge="1" parent="1" source="rm0nPTYw9YkT588bfk8z-9" target="rm0nPTYw9YkT588bfk8z-14">
          <mxGeometry relative="1" as="geometry" />
        </mxCell>
        <mxCell id="rm0nPTYw9YkT588bfk8z-17" value="" style="edgeStyle=orthogonalEdgeStyle;rounded=0;orthogonalLoop=1;jettySize=auto;html=1;exitX=1;exitY=0.3;exitDx=0;exitDy=0;entryX=0;entryY=0.3;entryDx=0;entryDy=0;" edge="1" parent="1" source="rm0nPTYw9YkT588bfk8z-13" target="rm0nPTYw9YkT588bfk8z-12">
          <mxGeometry relative="1" as="geometry" />
        </mxCell>
        <mxCell id="rm0nPTYw9YkT588bfk8z-18" value="" style="edgeStyle=orthogonalEdgeStyle;rounded=0;orthogonalLoop=1;jettySize=auto;html=1;exitX=1;exitY=0.5;exitDx=0;exitDy=0;entryX=0;entryY=0.7;entryDx=0;entryDy=0;" edge="1" parent="1" source="rm0nPTYw9YkT588bfk8z-14" target="rm0nPTYw9YkT588bfk8z-12">
          <mxGeometry relative="1" as="geometry" />
        </mxCell>
        <mxCell id="rm0nPTYw9YkT588bfk8z-19" value="步骤1" style="ellipse;whiteSpace=wrap;html=1;fillColor=#ffcc99;strokeColor=#36393d;fontSize=12;fontStyle=1;" vertex="1" parent="1">
          <mxGeometry x="160" y="100" width="50" height="30" as="geometry" />
        </mxCell>
        <mxCell id="rm0nPTYw9YkT588bfk8z-20" value="步骤2" style="ellipse;whiteSpace=wrap;html=1;fillColor=#ffcc99;strokeColor=#36393d;fontSize=12;fontStyle=1;" vertex="1" parent="1">
          <mxGeometry x="40" y="260" width="50" height="30" as="geometry" />
        </mxCell>
        <mxCell id="rm0nPTYw9YkT588bfk8z-21" value="步骤3" style="ellipse;whiteSpace=wrap;html=1;fillColor=#ffcc99;strokeColor=#36393d;fontSize=12;fontStyle=1;" vertex="1" parent="1">
          <mxGeometry x="460" y="100" width="50" height="30" as="geometry" />
        </mxCell>
        <mxCell id="rm0nPTYw9YkT588bfk8z-22" value="步骤4" style="ellipse;whiteSpace=wrap;html=1;fillColor=#ffcc99;strokeColor=#36393d;fontSize=12;fontStyle=1;" vertex="1" parent="1">
          <mxGeometry x="460" y="260" width="50" height="30" as="geometry" />
        </mxCell>
        <mxCell id="rm0nPTYw9YkT588bfk8z-23" value="步骤5" style="ellipse;whiteSpace=wrap;html=1;fillColor=#ffcc99;strokeColor=#36393d;fontSize=12;fontStyle=1;" vertex="1" parent="1">
          <mxGeometry x="860" y="280" width="50" height="30" as="geometry" />
        </mxCell>
        <mxCell id="rm0nPTYw9YkT588bfk8z-24" value="数据流向：Aurora → S3 → Glue Catalog → Athena → 应用层&#xa;优势：成本降低、弹性扩展、标准SQL查询" style="text;html=1;strokeColor=none;fillColor=none;align=left;verticalAlign=middle;whiteSpace=wrap;rounded=0;fontSize=11;fontColor=#666666;" vertex="1" parent="1">
          <mxGeometry x="80" y="450" width="400" height="40" as="geometry" />
        </mxCell>
        <mxCell id="rm0nPTYw9YkT588bfk8z-25" value="或者" style="rounded=1;whiteSpace=wrap;html=1;fillColor=#fff2cc;strokeColor=#d6b656;" vertex="1" parent="1">
          <mxGeometry x="660" y="300" width="80" height="50" as="geometry" />
        </mxCell>
        <mxCell id="rm0nPTYw9YkT588bfk8z-27" style="edgeStyle=orthogonalEdgeStyle;rounded=0;orthogonalLoop=1;jettySize=auto;html=1;entryX=0.5;entryY=0;entryDx=0;entryDy=0;entryPerimeter=0;exitX=0.613;exitY=-0.033;exitDx=0;exitDy=0;exitPerimeter=0;" edge="1" parent="1" source="rm0nPTYw9YkT588bfk8z-7" target="rm0nPTYw9YkT588bfk8z-2">
          <mxGeometry relative="1" as="geometry">
            <Array as="points">
              <mxPoint x="699" y="100" />
              <mxPoint x="239" y="100" />
            </Array>
          </mxGeometry>
        </mxCell>
      </root>
    </mxGraphModel>
  </diagram>
</mxfile>
